<svg xmlns="http://www.w3.org/2000/svg" viewBox="0 0 32 32">
  <defs>
    <linearGradient id="nova" x1="0%" y1="0%" x2="100%" y2="100%">
      <stop offset="0%" style="stop-color:#64c8ff"/>
      <stop offset="50%" style="stop-color:#b464ff"/>
      <stop offset="100%" style="stop-color:#64c8ff"/>
    </linearGradient>
    <filter id="glow">
      <feGaussianBlur stdDeviation="1" result="blur"/>
      <feMerge>
        <feMergeNode in="blur"/>
        <feMergeNode in="SourceGraphic"/>
      </feMerge>
    </filter>
  </defs>
  
  <!-- Background -->
  <rect width="32" height="32" rx="6" fill="#0a0a12"/>
  
  <!-- Nova burst -->
  <g filter="url(#glow)" transform="translate(16,16)">
    <!-- Main rays -->
    <path d="M0,-10 L1,-3 L0,-2 L-1,-3 Z" fill="url(#nova)"/>
    <path d="M0,10 L1,3 L0,2 L-1,3 Z" fill="url(#nova)"/>
    <path d="M-10,0 L-3,1 L-2,0 L-3,-1 Z" fill="url(#nova)"/>
    <path d="M10,0 L3,1 L2,0 L3,-1 Z" fill="url(#nova)"/>
    
    <!-- Diagonal rays -->
    <path d="M-7,-7 L-2.5,-2 L-2,-2.5 Z" fill="url(#nova)" opacity="0.7"/>
    <path d="M7,7 L2.5,2 L2,2.5 Z" fill="url(#nova)" opacity="0.7"/>
    <path d="M7,-7 L2.5,-2 L2,-2.5 Z" fill="url(#nova)" opacity="0.7"/>
    <path d="M-7,7 L-2.5,2 L-2,2.5 Z" fill="url(#nova)" opacity="0.7"/>
    
    <!-- Center core -->
    <circle r="2.5" fill="#fff"/>
    <circle r="1.5" fill="url(#nova)"/>
  </g>
</svg>
